<?xml version="1.0" encoding="UTF-8" standalone="no"?>
<score-partwise version="3.0"><part-list><score-part id="P1"><part-name>Music</part-name></score-part></part-list><part id="P1"><measure number="1"><attributes><divisions>480</divisions><key><fifths>1</fifths><mode>minor</mode></key><time><beats>4</beats><beat-type>4</beat-type></time><clef><sign>G</sign><line>2</line></clef></attributes><direction><direction-type><metronome><beat-unit>quarter</beat-unit><per-minute>120</per-minute></metronome></direction-type><sound tempo="120"></sound></direction><note><pitch><step>G</step><octave>5</octave></pitch><duration>240</duration><type>eighth</type></note><note><pitch><step>E</step><octave>5</octave></pitch><duration>240</duration><type>eighth</type></note><note><pitch><step>G</step><octave>5</octave></pitch><duration>240</duration><type>eighth</type></note><note><pitch><step>B</step><octave>5</octave></pitch><duration>240</duration><type>eighth</type></note><note><pitch><step>A</step><octave>5</octave></pitch><duration>720</duration><type>quarter</type><dot></dot></note><note><pitch><step>G</step><octave>5</octave></pitch><duration>120</duration><type>d16th</type></note><note><pitch><step>F</step><alter>1</alter><octave>5</octave></pitch><duration>120</duration><type>d16th</type></note></measure><measure number="2"><note><pitch><step>G</step><octave>5</octave></pitch><duration>720</duration><type>quarter</type><dot></dot></note><note><pitch><step>A</step><octave>5</octave></pitch><duration>120</duration><type>d16th</type></note><note><pitch><step>G</step><octave>5</octave></pitch><duration>120</duration><type>d16th</type></note><note><pitch><step>F</step><alter>1</alter><octave>5</octave></pitch><duration>240</duration><type>eighth</type></note><note><pitch><step>E</step><octave>5</octave></pitch><duration>240</duration><type>eighth</type></note><note><pitch><step>D</step><octave>5</octave></pitch><duration>240</duration><type>eighth</type></note><note><pitch><step>F</step><alter>1</alter><octave>5</octave></pitch><duration>240</duration><type>eighth</type></note></measure><measure number="3"><note><pitch><step>G</step><octave>5</octave></pitch><duration>240</duration><type>eighth</type></note><note><pitch><step>E</step><octave>5</octave></pitch><duration>240</duration><type>eighth</type></note><note><pitch><step>G</step><octave>5</octave></pitch><duration>240</duration><type>eighth</type></note><note><pitch><step>B</step><octave>5</octave></pitch><duration>240</duration><type>eighth</type></note><note><pitch><step>A</step><octave>5</octave></pitch><duration>720</duration><type>quarter</type><dot></dot></note><note><pitch><step>G</step><octave>5</octave></pitch><duration>120</duration><type>d16th</type></note><note><pitch><step>F</step><alter>1</alter><octave>5</octave></pitch><duration>120</duration><type>d16th</type></note></measure><measure number="4"><note><pitch><step>G</step><octave>5</octave></pitch><duration>720</duration><type>quarter</type><dot></dot></note><note><pitch><step>A</step><octave>5</octave></pitch><duration>120</duration><type>d16th</type></note><note><pitch><step>G</step><octave>5</octave></pitch><duration>120</duration><type>d16th</type></note><note><pitch><step>A</step><octave>5</octave></pitch><duration>240</duration><type>eighth</type></note><note><pitch><step>C</step><octave>6</octave></pitch><duration>240</duration><type>eighth</type></note><note><pitch><step>B</step><octave>5</octave></pitch><duration>240</duration><type>eighth</type></note><note><pitch><step>F</step><alter>1</alter><octave>5</octave></pitch><duration>240</duration><type>eighth</type></note></measure><measure number="5"><note><pitch><step>G</step><octave>5</octave></pitch><duration>240</duration><type>eighth</type></note><note><pitch><step>E</step><octave>5</octave></pitch><duration>240</duration><type>eighth</type></note><note><pitch><step>G</step><octave>5</octave></pitch><duration>240</duration><type>eighth</type></note><note><pitch><step>D</step><octave>6</octave></pitch><duration>240</duration><type>eighth</type></note><note><pitch><step>A</step><octave>5</octave></pitch><duration>720</duration><type>quarter</type><dot></dot></note><note><pitch><step>G</step><octave>5</octave></pitch><duration>120</duration><type>d16th</type></note><note><pitch><step>F</step><alter>1</alter><octave>5</octave></pitch><duration>120</duration><type>d16th</type></note></measure><measure number="6"><note><pitch><step>F</step><alter>1</alter><octave>5</octave></pitch><duration>720</duration><type>quarter</type><dot></dot></note><note><pitch><step>A</step><octave>5</octave></pitch><duration>120</duration><type>d16th</type></note><note><pitch><step>G</step><octave>5</octave></pitch><duration>120</duration><type>d16th</type></note><note><pitch><step>D</step><octave>6</octave></pitch><duration>480</duration><type>quarter</type></note><note><pitch><step>B</step><octave>5</octave></pitch><duration>240</duration><type>eighth</type></note><note><pitch><step>A</step><octave>5</octave></pitch><duration>240</duration><type>eighth</type></note></measure><measure number="7"><note><pitch><step>G</step><octave>5</octave></pitch><duration>240</duration><type>eighth</type></note><note><pitch><step>B</step><octave>4</octave></pitch><duration>240</duration><type>eighth</type></note><note><pitch><step>E</step><octave>5</octave></pitch><duration>240</duration><type>eighth</type></note><note><pitch><step>B</step><octave>5</octave></pitch><duration>240</duration><type>eighth</type></note><note><pitch><step>A</step><octave>5</octave></pitch><duration>720</duration><type>quarter</type><dot></dot></note><note><pitch><step>G</step><octave>5</octave></pitch><duration>120</duration><type>d16th</type></note><note><pitch><step>F</step><alter>1</alter><octave>5</octave></pitch><duration>120</duration><type>d16th</type></note></measure><measure number="8"><note><pitch><step>F</step><alter>1</alter><octave>5</octave></pitch><duration>720</duration><type>quarter</type><dot></dot></note><note><pitch><step>A</step><octave>5</octave></pitch><duration>120</duration><type>d16th</type></note><note><pitch><step>G</step><octave>5</octave></pitch><duration>120</duration><type>d16th</type></note><note><pitch><step>F</step><alter>1</alter><octave>5</octave></pitch><duration>240</duration><type>eighth</type></note><note><pitch><step>C</step><octave>6</octave></pitch><duration>240</duration><type>eighth</type></note><note><pitch><step>B</step><octave>5</octave></pitch><duration>240</duration><type>eighth</type></note><note><pitch><step>F</step><alter>1</alter><octave>5</octave></pitch><duration>240</duration><type>eighth</type></note></measure><measure number="9"><note><pitch><step>G</step><octave>5</octave></pitch><duration>240</duration><type>eighth</type></note><note><pitch><step>E</step><octave>5</octave></pitch><duration>240</duration><type>eighth</type></note><note><pitch><step>G</step><octave>5</octave></pitch><duration>240</duration><type>eighth</type></note><note><pitch><step>B</step><octave>5</octave></pitch><duration>240</duration><type>eighth</type></note><note><pitch><step>A</step><octave>5</octave></pitch><duration>720</duration><type>quarter</type><dot></dot></note><note><pitch><step>G</step><octave>5</octave></pitch><duration>120</duration><type>d16th</type></note><note><pitch><step>F</step><alter>1</alter><octave>5</octave></pitch><duration>120</duration><type>d16th</type></note></measure><measure number="10"><note><pitch><step>G</step><octave>5</octave></pitch><duration>720</duration><type>quarter</type><dot></dot></note><note><pitch><step>A</step><octave>5</octave></pitch><duration>120</duration><type>d16th</type></note><note><pitch><step>G</step><octave>5</octave></pitch><duration>120</duration><type>d16th</type></note><note><pitch><step>F</step><alter>1</alter><octave>5</octave></pitch><duration>240</duration><type>eighth</type></note><note><pitch><step>E</step><octave>5</octave></pitch><duration>240</duration><type>eighth</type></note><note><pitch><step>D</step><octave>5</octave></pitch><duration>240</duration><type>eighth</type></note><note><pitch><step>F</step><alter>1</alter><octave>5</octave></pitch><duration>240</duration><type>eighth</type></note></measure><measure number="11"><note><pitch><step>G</step><octave>5</octave></pitch><duration>240</duration><type>eighth</type></note><note><pitch><step>E</step><octave>5</octave></pitch><duration>240</duration><type>eighth</type></note><note><pitch><step>G</step><octave>5</octave></pitch><duration>240</duration><type>eighth</type></note><note><pitch><step>B</step><octave>5</octave></pitch><duration>240</duration><type>eighth</type></note><note><pitch><step>A</step><octave>5</octave></pitch><duration>720</duration><type>quarter</type><dot></dot></note><note><pitch><step>G</step><octave>5</octave></pitch><duration>120</duration><type>d16th</type></note><note><pitch><step>F</step><alter>1</alter><octave>5</octave></pitch><duration>120</duration><type>d16th</type></note></measure><measure number="12"><note><pitch><step>F</step><alter>1</alter><octave>5</octave></pitch><duration>720</duration><type>quarter</type><dot></dot></note><note><pitch><step>A</step><octave>5</octave></pitch><duration>120</duration><type>d16th</type></note><note><pitch><step>G</step><octave>5</octave></pitch><duration>120</duration><type>d16th</type></note><note><pitch><step>F</step><alter>1</alter><octave>5</octave></pitch><duration>240</duration><type>eighth</type></note><note><pitch><step>C</step><octave>6</octave></pitch><duration>240</duration><type>eighth</type></note><note><pitch><step>B</step><octave>5</octave></pitch><duration>240</duration><type>eighth</type></note><note><pitch><step>F</step><alter>1</alter><octave>5</octave></pitch><duration>240</duration><type>eighth</type></note></measure><measure number="13"><note><pitch><step>G</step><octave>5</octave></pitch><duration>240</duration><type>eighth</type></note><note><pitch><step>E</step><octave>5</octave></pitch><duration>240</duration><type>eighth</type></note><note><pitch><step>G</step><octave>5</octave></pitch><duration>240</duration><type>eighth</type></note><note><pitch><step>D</step><octave>6</octave></pitch><duration>240</duration><type>eighth</type></note><note><pitch><step>A</step><octave>5</octave></pitch><duration>720</duration><type>quarter</type><dot></dot></note><note><pitch><step>G</step><octave>5</octave></pitch><duration>120</duration><type>d16th</type></note><note><pitch><step>F</step><alter>1</alter><octave>5</octave></pitch><duration>120</duration><type>d16th</type></note></measure><measure number="14"><note><pitch><step>F</step><alter>1</alter><octave>5</octave></pitch><duration>720</duration><type>quarter</type><dot></dot></note><note><pitch><step>A</step><octave>5</octave></pitch><duration>120</duration><type>d16th</type></note><note><pitch><step>G</step><octave>5</octave></pitch><duration>120</duration><type>d16th</type></note><note><pitch><step>D</step><octave>6</octave></pitch><duration>480</duration><type>quarter</type></note><note><pitch><step>B</step><octave>5</octave></pitch><duration>240</duration><type>eighth</type></note><note><pitch><step>A</step><octave>5</octave></pitch><duration>240</duration><type>eighth</type></note></measure><measure number="15"><note><pitch><step>G</step><octave>5</octave></pitch><duration>240</duration><type>eighth</type></note><note><pitch><step>B</step><octave>4</octave></pitch><duration>240</duration><type>eighth</type></note><note><pitch><step>E</step><octave>5</octave></pitch><duration>240</duration><type>eighth</type></note><note><pitch><step>B</step><octave>5</octave></pitch><duration>240</duration><type>eighth</type></note><note><pitch><step>A</step><octave>5</octave></pitch><duration>720</duration><type>quarter</type><dot></dot></note><note><pitch><step>G</step><octave>5</octave></pitch><duration>120</duration><type>d16th</type></note><note><pitch><step>F</step><alter>1</alter><octave>5</octave></pitch><duration>120</duration><type>d16th</type></note></measure><measure number="16"><note><pitch><step>F</step><alter>1</alter><octave>5</octave></pitch><duration>720</duration><type>quarter</type><dot></dot></note><note><pitch><step>A</step><octave>5</octave></pitch><duration>120</duration><type>d16th</type></note><note><pitch><step>G</step><octave>5</octave></pitch><duration>120</duration><type>d16th</type></note><note><pitch><step>F</step><alter>1</alter><octave>5</octave></pitch><duration>240</duration><type>eighth</type></note><note><pitch><step>C</step><octave>6</octave></pitch><duration>240</duration><type>eighth</type></note><note><pitch><step>B</step><octave>5</octave></pitch><duration>240</duration><type>eighth</type></note><note><pitch><step>F</step><alter>1</alter><octave>5</octave></pitch><duration>240</duration><type>eighth</type></note></measure><measure number="17"><note><pitch><step>G</step><octave>5</octave></pitch><duration>960</duration><type>half</type></note><note><pitch><step>G</step><octave>5</octave></pitch><duration>960</duration><type>half</type></note></measure><measure number="18"><note><pitch><step>G</step><octave>5</octave></pitch><duration>960</duration><type>half</type></note><note><pitch><step>F</step><alter>1</alter><octave>5</octave></pitch><duration>960</duration><type>half</type></note></measure><measure number="19"><note><pitch><step>E</step><octave>5</octave></pitch><duration>960</duration><type>half</type></note><note><pitch><step>E</step><octave>5</octave></pitch><duration>960</duration><type>half</type></note></measure><measure number="20"><note><pitch><step>G</step><octave>5</octave></pitch><duration>960</duration><type>half</type></note><note><pitch><step>F</step><alter>1</alter><octave>5</octave></pitch><duration>480</duration><type>quarter</type></note><note><pitch><step>G</step><octave>5</octave></pitch><duration>480</duration><type>quarter</type></note></measure><measure number="21"><note><pitch><step>A</step><octave>5</octave></pitch><duration>960</duration><type>half</type></note><note><pitch><step>A</step><octave>5</octave></pitch><duration>960</duration><type>half</type></note></measure><measure number="22"><note><pitch><step>B</step><octave>5</octave></pitch><duration>960</duration><type>half</type></note><note><pitch><step>C</step><octave>6</octave></pitch><duration>960</duration><type>half</type></note></measure><measure number="23"><note><pitch><step>B</step><octave>5</octave></pitch><duration>960</duration><type>half</type></note><note><pitch><step>B</step><octave>5</octave></pitch><duration>960</duration><type>half</type></note></measure><measure number="24"><note><pitch><step>A</step><octave>5</octave></pitch><duration>960</duration><type>half</type></note><note><pitch><step>A</step><octave>5</octave></pitch><duration>480</duration><type>quarter</type></note><note><pitch><step>G</step><octave>5</octave></pitch><duration>480</duration><type>quarter</type></note></measure><measure number="25"><note><pitch><step>G</step><octave>5</octave></pitch><duration>960</duration><type>half</type></note><note><pitch><step>G</step><octave>5</octave></pitch><duration>960</duration><type>half</type></note></measure><measure number="26"><note><pitch><step>G</step><octave>5</octave></pitch><duration>960</duration><type>half</type></note><note><pitch><step>A</step><octave>5</octave></pitch><duration>960</duration><type>half</type></note></measure><measure number="27"><note><pitch><step>E</step><octave>5</octave></pitch><duration>960</duration><type>half</type></note><note><pitch><step>C</step><octave>6</octave></pitch><duration>960</duration><type>half</type></note></measure><measure number="28"><note><pitch><step>B</step><octave>5</octave></pitch><duration>960</duration><type>half</type></note><note><pitch><step>A</step><octave>5</octave></pitch><duration>480</duration><type>quarter</type></note><note><pitch><step>G</step><octave>5</octave></pitch><duration>480</duration><type>quarter</type></note></measure><measure number="29"><note><pitch><step>B</step><octave>5</octave></pitch><duration>960</duration><type>half</type></note><note><pitch><step>A</step><octave>5</octave></pitch><duration>960</duration><type>half</type></note></measure><measure number="30"><note><pitch><step>D</step><octave>6</octave></pitch><duration>960</duration><type>half</type></note><note><pitch><step>C</step><octave>6</octave></pitch><duration>480</duration><type>quarter</type></note><note><pitch><step>B</step><octave>5</octave></pitch><duration>480</duration><type>quarter</type></note></measure><measure number="31"><note><pitch><step>B</step><octave>5</octave></pitch><duration>480</duration><type>quarter</type></note><note><pitch><step>C</step><octave>6</octave></pitch><duration>240</duration><type>eighth</type></note><note><pitch><step>B</step><octave>5</octave></pitch><duration>240</duration><type>eighth</type></note><note><pitch><step>A</step><octave>5</octave></pitch><duration>240</duration><type>eighth</type></note><note><pitch><step>B</step><octave>5</octave></pitch><duration>240</duration><type>eighth</type></note><note><pitch><step>A</step><octave>5</octave></pitch><duration>240</duration><type>eighth</type></note><note><pitch><step>G</step><octave>5</octave></pitch><duration>240</duration><type>eighth</type></note></measure><measure number="32"><note><pitch><step>E</step><octave>5</octave></pitch><duration>480</duration><type>quarter</type></note><note><pitch><step>E</step><octave>5</octave></pitch><duration>240</duration><type>eighth</type></note><note><pitch><step>C</step><octave>6</octave></pitch><duration>240</duration><type>eighth</type></note><note><pitch><step>B</step><octave>5</octave></pitch><duration>480</duration><type>quarter</type></note><note><pitch><step>G</step><octave>5</octave></pitch><duration>240</duration><type>eighth</type></note><note><pitch><step>A</step><octave>5</octave></pitch><duration>240</duration><type>eighth</type></note></measure><measure number="33"><note><pitch><step>A</step><octave>5</octave></pitch><duration>720</duration><type>quarter</type><dot></dot></note><note><pitch><step>F</step><alter>1</alter><octave>5</octave></pitch><duration>240</duration><type>eighth</type></note><note><pitch><step>G</step><octave>5</octave></pitch><duration>240</duration><type>eighth</type></note><note><pitch><step>A</step><octave>5</octave></pitch><duration>240</duration><type>eighth</type></note><note><pitch><step>B</step><octave>5</octave></pitch><duration>240</duration><type>eighth</type></note><note><pitch><step>C</step><octave>6</octave></pitch><duration>240</duration><type>eighth</type></note></measure><measure number="34"><note><pitch><step>B</step><octave>5</octave></pitch><duration>720</duration><type>quarter</type><dot></dot></note><note><pitch><step>G</step><octave>5</octave></pitch><duration>240</duration><type>eighth</type></note><note><pitch><step>F</step><alter>1</alter><octave>5</octave></pitch><duration>480</duration><type>quarter</type></note><note><pitch><step>G</step><octave>5</octave></pitch><duration>240</duration><type>eighth</type></note><note><pitch><step>A</step><octave>5</octave></pitch><duration>240</duration><type>eighth</type></note></measure><measure number="35"><note><pitch><step>A</step><octave>5</octave></pitch><duration>720</duration><type>quarter</type><dot></dot></note><note><pitch><step>A</step><octave>5</octave></pitch><duration>240</duration><type>eighth</type></note><note><pitch><step>A</step><octave>5</octave></pitch><duration>240</duration><type>eighth</type></note><note><pitch><step>G</step><octave>5</octave></pitch><duration>240</duration><type>eighth</type></note><note><pitch><step>F</step><alter>1</alter><octave>5</octave></pitch><duration>240</duration><type>eighth</type></note><note><pitch><step>G</step><octave>5</octave></pitch><duration>240</duration><type>eighth</type></note></measure><measure number="36"><note><pitch><step>E</step><octave>5</octave></pitch><duration>720</duration><type>quarter</type><dot></dot></note><note><pitch><step>E</step><octave>5</octave></pitch><duration>240</duration><type>eighth</type></note><note><pitch><step>C</step><octave>6</octave></pitch><duration>240</duration><type>eighth</type></note><note><pitch><step>B</step><octave>5</octave></pitch><duration>240</duration><type>eighth</type></note><note><pitch><step>A</step><octave>5</octave></pitch><duration>240</duration><type>eighth</type></note><note><pitch><step>G</step><octave>5</octave></pitch><duration>240</duration><type>eighth</type></note></measure><measure number="37"><note><pitch><step>A</step><octave>5</octave></pitch><duration>720</duration><type>quarter</type><dot></dot></note><note><pitch><step>F</step><alter>1</alter><octave>5</octave></pitch><duration>240</duration><type>eighth</type></note><note><pitch><step>F</step><alter>1</alter><octave>5</octave></pitch><duration>240</duration><type>eighth</type></note><note><pitch><step>G</step><octave>5</octave></pitch><duration>240</duration><type>eighth</type></note><note><pitch><step>A</step><octave>5</octave></pitch><duration>240</duration><type>eighth</type></note><note><pitch><step>B</step><octave>5</octave></pitch><duration>240</duration><type>eighth</type></note></measure><measure number="38"><note><pitch><step>B</step><octave>5</octave></pitch><duration>720</duration><type>quarter</type><dot></dot></note><note><pitch><step>G</step><octave>5</octave></pitch><duration>240</duration><type>eighth</type></note><note><pitch><step>F</step><alter>1</alter><octave>5</octave></pitch><duration>480</duration><type>quarter</type></note><note><pitch><step>G</step><octave>5</octave></pitch><duration>240</duration><type>eighth</type></note><note><pitch><step>A</step><octave>5</octave></pitch><duration>240</duration><type>eighth</type></note></measure><measure number="39"><note><pitch><step>B</step><octave>5</octave></pitch><duration>960</duration><type>half</type></note><note><pitch><step>A</step><octave>5</octave></pitch><duration>960</duration><type>half</type></note></measure><measure number="40"><note><pitch><step>C</step><octave>6</octave></pitch><duration>960</duration><type>half</type></note><note><pitch><step>B</step><octave>5</octave></pitch><duration>960</duration><type>half</type></note></measure></part></score-partwise>